<svg width="171" height="13" viewBox="0 0 171 13" fill="none" xmlns="http://www.w3.org/2000/svg">
<path d="M0.52 12C0.402667 12 0.306667 11.9627 0.232 11.888C0.157333 11.8133 0.12 11.7173 0.12 11.6V1.2C0.12 1.08267 0.157333 0.986666 0.232 0.912C0.306667 0.837333 0.402667 0.799999 0.52 0.799999H2.216C2.39733 0.799999 2.52533 0.842666 2.6 0.927999C2.68533 1.00267 2.73867 1.06133 2.76 1.104L6.664 7.264V1.2C6.664 1.08267 6.70133 0.986666 6.776 0.912C6.85067 0.837333 6.94667 0.799999 7.064 0.799999H8.984C9.10133 0.799999 9.19733 0.837333 9.272 0.912C9.34667 0.986666 9.384 1.08267 9.384 1.2V11.6C9.384 11.7067 9.34667 11.8027 9.272 11.888C9.19733 11.9627 9.10133 12 8.984 12H7.272C7.10133 12 6.97333 11.9573 6.888 11.872C6.81333 11.7867 6.76533 11.728 6.744 11.696L2.84 5.776V11.6C2.84 11.7173 2.80267 11.8133 2.728 11.888C2.65333 11.9627 2.55733 12 2.44 12H0.52ZM10.98 12C10.8947 12 10.8147 11.968 10.74 11.904C10.676 11.8293 10.644 11.7493 10.644 11.664C10.644 11.6107 10.6493 11.5627 10.66 11.52L14.42 1.248C14.452 1.13067 14.516 1.02933 14.612 0.943999C14.7187 0.847999 14.8627 0.799999 15.044 0.799999H17.412C17.5933 0.799999 17.732 0.847999 17.828 0.943999C17.9347 1.02933 18.004 1.13067 18.036 1.248L21.78 11.52C21.8013 11.5627 21.812 11.6107 21.812 11.664C21.812 11.7493 21.7747 11.8293 21.7 11.904C21.636 11.968 21.556 12 21.46 12H19.492C19.332 12 19.2093 11.9627 19.124 11.888C19.0493 11.8027 19.0013 11.728 18.98 11.664L18.356 10.032H14.084L13.476 11.664C13.4547 11.728 13.4067 11.8027 13.332 11.888C13.2573 11.9627 13.1293 12 12.948 12H10.98ZM14.74 7.728H17.716L16.212 3.504L14.74 7.728ZM23.4731 12C23.3665 12 23.2705 11.9627 23.1851 11.888C23.1105 11.8133 23.0731 11.7173 23.0731 11.6V1.2C23.0731 1.08267 23.1105 0.986666 23.1851 0.912C23.2705 0.837333 23.3665 0.799999 23.4731 0.799999H25.2011C25.3718 0.799999 25.4998 0.847999 25.5851 0.943999C25.6811 1.02933 25.7398 1.09867 25.7611 1.152L28.5771 6.208L31.3931 1.152C31.4251 1.09867 31.4785 1.02933 31.5531 0.943999C31.6385 0.847999 31.7718 0.799999 31.9531 0.799999H33.6651C33.7825 0.799999 33.8785 0.837333 33.9531 0.912C34.0385 0.986666 34.0811 1.08267 34.0811 1.2V11.6C34.0811 11.7173 34.0385 11.8133 33.9531 11.888C33.8785 11.9627 33.7825 12 33.6651 12H31.7611C31.6438 12 31.5425 11.9627 31.4571 11.888C31.3825 11.8133 31.3451 11.7173 31.3451 11.6V5.6L29.5371 8.944C29.4945 9.04 29.4305 9.12533 29.3451 9.2C29.2598 9.27467 29.1425 9.312 28.9931 9.312H28.1611C28.0118 9.312 27.8945 9.27467 27.8091 9.2C27.7238 9.12533 27.6545 9.04 27.6011 8.944L25.7931 5.6V11.6C25.7931 11.7173 25.7558 11.8133 25.6811 11.888C25.6065 11.9627 25.5105 12 25.3931 12H23.4731ZM35.6675 12C35.5822 12 35.5022 11.968 35.4275 11.904C35.3635 11.8293 35.3315 11.7493 35.3315 11.664C35.3315 11.6107 35.3368 11.5627 35.3475 11.52L39.1075 1.248C39.1395 1.13067 39.2035 1.02933 39.2995 0.943999C39.4062 0.847999 39.5502 0.799999 39.7315 0.799999H42.0995C42.2808 0.799999 42.4195 0.847999 42.5155 0.943999C42.6222 1.02933 42.6915 1.13067 42.7235 1.248L46.4675 11.52C46.4888 11.5627 46.4995 11.6107 46.4995 11.664C46.4995 11.7493 46.4622 11.8293 46.3875 11.904C46.3235 11.968 46.2435 12 46.1475 12H44.1795C44.0195 12 43.8968 11.9627 43.8115 11.888C43.7368 11.8027 43.6888 11.728 43.6675 11.664L43.0435 10.032H38.7715L38.1635 11.664C38.1422 11.728 38.0942 11.8027 38.0195 11.888C37.9448 11.9627 37.8168 12 37.6355 12H35.6675ZM39.4275 7.728H42.4035L40.8995 3.504L39.4275 7.728ZM48.1606 12C48.0433 12 47.9473 11.9627 47.8726 11.888C47.798 11.8133 47.7606 11.7173 47.7606 11.6V1.2C47.7606 1.08267 47.798 0.986666 47.8726 0.912C47.9473 0.837333 48.0433 0.799999 48.1606 0.799999H49.8566C50.038 0.799999 50.166 0.842666 50.2406 0.927999C50.326 1.00267 50.3793 1.06133 50.4006 1.104L54.3046 7.264V1.2C54.3046 1.08267 54.342 0.986666 54.4166 0.912C54.4913 0.837333 54.5873 0.799999 54.7046 0.799999H56.6246C56.742 0.799999 56.838 0.837333 56.9126 0.912C56.9873 0.986666 57.0246 1.08267 57.0246 1.2V11.6C57.0246 11.7067 56.9873 11.8027 56.9126 11.888C56.838 11.9627 56.742 12 56.6246 12H54.9126C54.742 12 54.614 11.9573 54.5286 11.872C54.454 11.7867 54.406 11.728 54.3846 11.696L50.4806 5.776V11.6C50.4806 11.7173 50.4433 11.8133 50.3686 11.888C50.294 11.9627 50.198 12 50.0806 12H48.1606ZM63.8846 12.16C62.8713 12.16 61.9966 11.9947 61.2606 11.664C60.5353 11.3227 59.97 10.832 59.5646 10.192C59.17 9.54133 58.9513 8.752 58.9086 7.824C58.898 7.36533 58.8926 6.88 58.8926 6.368C58.8926 5.84533 58.898 5.34933 58.9086 4.88C58.9513 3.97333 59.1753 3.20533 59.5806 2.576C59.986 1.94667 60.5566 1.46667 61.2926 1.136C62.0286 0.805333 62.8926 0.639999 63.8846 0.639999C64.6846 0.639999 65.394 0.741333 66.0126 0.943999C66.6313 1.136 67.1486 1.39733 67.5646 1.728C67.9913 2.05867 68.3113 2.42133 68.5246 2.816C68.7486 3.21067 68.866 3.6 68.8766 3.984C68.8873 4.08 68.8553 4.16 68.7806 4.224C68.7166 4.288 68.6366 4.32 68.5406 4.32H66.2046C66.0873 4.32 65.9966 4.304 65.9326 4.272C65.8793 4.22933 65.8313 4.17067 65.7886 4.096C65.714 3.936 65.602 3.77067 65.4526 3.6C65.314 3.41867 65.1166 3.264 64.8606 3.136C64.6153 3.008 64.29 2.944 63.8846 2.944C63.2766 2.944 62.7966 3.104 62.4446 3.424C62.1033 3.744 61.9166 4.256 61.8846 4.96C61.8526 5.87733 61.8526 6.80533 61.8846 7.744C61.9166 8.49067 62.114 9.02933 62.4766 9.36C62.8393 9.69067 63.3193 9.856 63.9166 9.856C64.322 9.856 64.6793 9.78667 64.9886 9.648C65.3086 9.50933 65.5593 9.296 65.7406 9.008C65.922 8.70933 66.0126 8.33067 66.0126 7.872V7.568H64.5086C64.3913 7.568 64.29 7.53067 64.2046 7.456C64.13 7.37067 64.0926 7.26933 64.0926 7.152V5.968C64.0926 5.85067 64.13 5.75467 64.2046 5.68C64.29 5.59467 64.3913 5.552 64.5086 5.552H68.5406C68.658 5.552 68.754 5.59467 68.8286 5.68C68.9033 5.75467 68.9406 5.85067 68.9406 5.968V7.792C68.9406 8.70933 68.7326 9.49333 68.3166 10.144C67.9006 10.7947 67.3086 11.296 66.5406 11.648C65.7833 11.9893 64.898 12.16 63.8846 12.16ZM69.8863 12C69.8009 12 69.7209 11.968 69.6463 11.904C69.5823 11.8293 69.5503 11.7493 69.5503 11.664C69.5503 11.6107 69.5556 11.5627 69.5663 11.52L73.3263 1.248C73.3583 1.13067 73.4223 1.02933 73.5182 0.943999C73.6249 0.847999 73.7689 0.799999 73.9503 0.799999H76.3183C76.4996 0.799999 76.6383 0.847999 76.7343 0.943999C76.8409 1.02933 76.9103 1.13067 76.9423 1.248L80.6863 11.52C80.7076 11.5627 80.7183 11.6107 80.7183 11.664C80.7183 11.7493 80.6809 11.8293 80.6063 11.904C80.5423 11.968 80.4623 12 80.3663 12H78.3983C78.2383 12 78.1156 11.9627 78.0303 11.888C77.9556 11.8027 77.9076 11.728 77.8863 11.664L77.2623 10.032H72.9903L72.3823 11.664C72.3609 11.728 72.3129 11.8027 72.2383 11.888C72.1636 11.9627 72.0356 12 71.8543 12H69.8863ZM73.6463 7.728H76.6223L75.1183 3.504L73.6463 7.728ZM82.3794 12C82.262 12 82.166 11.9627 82.0914 11.888C82.0167 11.8133 81.9794 11.7173 81.9794 11.6V1.2C81.9794 1.08267 82.0167 0.986666 82.0914 0.912C82.166 0.837333 82.262 0.799999 82.3794 0.799999H84.0754C84.2567 0.799999 84.3847 0.842666 84.4594 0.927999C84.5447 1.00267 84.598 1.06133 84.6194 1.104L88.5234 7.264V1.2C88.5234 1.08267 88.5607 0.986666 88.6354 0.912C88.71 0.837333 88.806 0.799999 88.9234 0.799999H90.8434C90.9607 0.799999 91.0567 0.837333 91.1314 0.912C91.206 0.986666 91.2434 1.08267 91.2434 1.2V11.6C91.2434 11.7067 91.206 11.8027 91.1314 11.888C91.0567 11.9627 90.9607 12 90.8434 12H89.1314C88.9607 12 88.8327 11.9573 88.7474 11.872C88.6727 11.7867 88.6247 11.728 88.6034 11.696L84.6994 5.776V11.6C84.6994 11.7173 84.662 11.8133 84.5874 11.888C84.5127 11.9627 84.4167 12 84.2994 12H82.3794ZM93.8794 12C93.762 12 93.666 11.9627 93.5914 11.888C93.5167 11.8133 93.4794 11.7173 93.4794 11.6V1.2C93.4794 1.08267 93.5167 0.986666 93.5914 0.912C93.666 0.837333 93.762 0.799999 93.8794 0.799999H95.9914C96.098 0.799999 96.1887 0.837333 96.2634 0.912C96.3487 0.986666 96.3914 1.08267 96.3914 1.2V9.584H101.223C101.341 9.584 101.437 9.62667 101.511 9.712C101.597 9.78667 101.639 9.88267 101.639 10V11.6C101.639 11.7173 101.597 11.8133 101.511 11.888C101.437 11.9627 101.341 12 101.223 12H93.8794ZM103.426 12C103.309 12 103.213 11.9627 103.138 11.888C103.064 11.8133 103.026 11.7173 103.026 11.6V1.2C103.026 1.08267 103.064 0.986666 103.138 0.912C103.213 0.837333 103.309 0.799999 103.426 0.799999H105.57C105.688 0.799999 105.784 0.837333 105.858 0.912C105.933 0.986666 105.97 1.08267 105.97 1.2V11.6C105.97 11.7173 105.933 11.8133 105.858 11.888C105.784 11.9627 105.688 12 105.57 12H103.426ZM108.614 12C108.496 12 108.4 11.9627 108.326 11.888C108.251 11.8133 108.214 11.7173 108.214 11.6V1.2C108.214 1.08267 108.251 0.986666 108.326 0.912C108.4 0.837333 108.496 0.799999 108.614 0.799999H110.63C110.747 0.799999 110.843 0.837333 110.918 0.912C110.992 0.986666 111.03 1.08267 111.03 1.2V4.752L113.99 1.104C114.032 1.04 114.102 0.976 114.198 0.912C114.304 0.837333 114.443 0.799999 114.614 0.799999H116.918C117.014 0.799999 117.094 0.837333 117.158 0.912C117.222 0.976 117.254 1.05067 117.254 1.136C117.254 1.21067 117.232 1.27467 117.19 1.328L113.366 6.16L117.494 11.472C117.536 11.5147 117.558 11.5787 117.558 11.664C117.558 11.7493 117.52 11.8293 117.446 11.904C117.382 11.968 117.307 12 117.222 12H114.838C114.646 12 114.496 11.9573 114.39 11.872C114.294 11.7867 114.23 11.7227 114.198 11.68L111.03 7.728V11.6C111.03 11.7173 110.992 11.8133 110.918 11.888C110.843 11.9627 110.747 12 110.63 12H108.614ZM119.208 12C119.09 12 118.994 11.9627 118.92 11.888C118.845 11.8133 118.808 11.7173 118.808 11.6V1.2C118.808 1.08267 118.845 0.986666 118.92 0.912C118.994 0.837333 119.09 0.799999 119.208 0.799999H121.32C121.426 0.799999 121.517 0.837333 121.592 0.912C121.677 0.986666 121.72 1.08267 121.72 1.2V9.584H126.552C126.669 9.584 126.765 9.62667 126.84 9.712C126.925 9.78667 126.968 9.88267 126.968 10V11.6C126.968 11.7173 126.925 11.8133 126.84 11.888C126.765 11.9627 126.669 12 126.552 12H119.208ZM127.714 12C127.629 12 127.549 11.968 127.474 11.904C127.41 11.8293 127.378 11.7493 127.378 11.664C127.378 11.6107 127.384 11.5627 127.394 11.52L131.154 1.248C131.186 1.13067 131.25 1.02933 131.346 0.943999C131.453 0.847999 131.597 0.799999 131.778 0.799999H134.146C134.328 0.799999 134.466 0.847999 134.562 0.943999C134.669 1.02933 134.738 1.13067 134.77 1.248L138.514 11.52C138.536 11.5627 138.546 11.6107 138.546 11.664C138.546 11.7493 138.509 11.8293 138.434 11.904C138.37 11.968 138.29 12 138.194 12H136.226C136.066 12 135.944 11.9627 135.858 11.888C135.784 11.8027 135.736 11.728 135.714 11.664L135.09 10.032H130.818L130.21 11.664C130.189 11.728 130.141 11.8027 130.066 11.888C129.992 11.9627 129.864 12 129.682 12H127.714ZM131.474 7.728H134.45L132.946 3.504L131.474 7.728ZM140.208 12C140.09 12 139.994 11.9627 139.92 11.888C139.845 11.8133 139.808 11.7173 139.808 11.6V1.2C139.808 1.08267 139.845 0.986666 139.92 0.912C139.994 0.837333 140.09 0.799999 140.208 0.799999H144.56C145.936 0.799999 147.018 1.12 147.808 1.76C148.608 2.38933 149.008 3.28533 149.008 4.448C149.008 5.20533 148.821 5.84533 148.448 6.368C148.085 6.89067 147.605 7.28533 147.008 7.552L149.216 11.488C149.248 11.552 149.264 11.6107 149.264 11.664C149.264 11.7493 149.226 11.8293 149.152 11.904C149.088 11.968 149.008 12 148.912 12H146.8C146.597 12 146.448 11.952 146.352 11.856C146.256 11.7493 146.186 11.6533 146.144 11.568L144.32 8.048H142.672V11.6C142.672 11.7173 142.634 11.8133 142.56 11.888C142.485 11.9627 142.389 12 142.272 12H140.208ZM142.672 5.792H144.528C145.029 5.792 145.402 5.66933 145.648 5.424C145.904 5.17867 146.032 4.84267 146.032 4.416C146.032 4 145.909 3.664 145.664 3.408C145.429 3.152 145.05 3.024 144.528 3.024H142.672V5.792ZM150.822 12C150.705 12 150.603 11.9627 150.518 11.888C150.443 11.8133 150.406 11.7173 150.406 11.6V10.464C150.406 10.3893 150.427 10.2773 150.47 10.128C150.513 9.968 150.625 9.81867 150.806 9.68L152.47 8.048C153.323 7.39733 154.022 6.848 154.566 6.4C155.121 5.94133 155.531 5.536 155.798 5.184C156.065 4.832 156.198 4.50133 156.198 4.192C156.198 3.82933 156.102 3.53067 155.91 3.296C155.729 3.05067 155.409 2.928 154.95 2.928C154.641 2.928 154.379 2.99733 154.166 3.136C153.963 3.264 153.809 3.43467 153.702 3.648C153.595 3.86133 153.521 4.08 153.478 4.304C153.435 4.44267 153.361 4.53867 153.254 4.592C153.158 4.64533 153.051 4.672 152.934 4.672H150.934C150.838 4.672 150.758 4.64 150.694 4.576C150.63 4.512 150.598 4.432 150.598 4.336C150.609 3.824 150.715 3.344 150.918 2.896C151.131 2.448 151.425 2.05333 151.798 1.712C152.182 1.36 152.635 1.088 153.158 0.896C153.691 0.704 154.289 0.608 154.95 0.608C155.857 0.608 156.625 0.752 157.254 1.04C157.894 1.328 158.379 1.73333 158.71 2.256C159.041 2.768 159.206 3.37067 159.206 4.064C159.206 4.58667 159.089 5.07733 158.854 5.536C158.63 5.984 158.305 6.416 157.878 6.832C157.462 7.23733 156.966 7.65867 156.39 8.096L154.918 9.584H159.03C159.147 9.584 159.243 9.62133 159.318 9.696C159.403 9.77067 159.446 9.86667 159.446 9.984V11.6C159.446 11.7173 159.403 11.8133 159.318 11.888C159.243 11.9627 159.147 12 159.03 12H150.822ZM166.318 12C166.211 12 166.115 11.9627 166.03 11.888C165.955 11.8133 165.918 11.7173 165.918 11.6V9.792H160.942C160.835 9.792 160.739 9.75467 160.654 9.68C160.579 9.60533 160.542 9.50933 160.542 9.392V7.872C160.542 7.776 160.558 7.69067 160.59 7.616C160.632 7.53067 160.675 7.45067 160.718 7.376L165.374 1.072C165.512 0.890666 165.71 0.799999 165.966 0.799999H168.286C168.403 0.799999 168.499 0.837333 168.574 0.912C168.659 0.986666 168.702 1.08267 168.702 1.2V7.408H170.11C170.238 7.408 170.339 7.45067 170.414 7.536C170.488 7.61067 170.526 7.70133 170.526 7.808V9.392C170.526 9.50933 170.483 9.60533 170.398 9.68C170.323 9.75467 170.232 9.792 170.126 9.792H168.702V11.6C168.702 11.7173 168.659 11.8133 168.574 11.888C168.499 11.9627 168.403 12 168.286 12H166.318ZM163.294 7.52H165.982V3.744L163.294 7.52Z" fill="white"/>
</svg>
